<?xml version="1.0" encoding="utf-8"?>
<!-- Generator: Adobe Illustrator 22.0.0, SVG Export Plug-In . SVG Version: 6.00 Build 0)  -->
<svg version="1.1" id="Calque_1" xmlns="http://www.w3.org/2000/svg" xmlns:xlink="http://www.w3.org/1999/xlink" x="0px" y="0px"
	 viewBox="0 0 960 960" style="enable-background:new 0 0 960 960;" xml:space="preserve">
<path d="M450.7,561.2c-31.8,0-63.6-0.2-95.4,0.2c-8.3,0.1-13.7-5.6-13.9-11.8c-0.3-7.4,5.3-12.5,13.7-12.5c63.9,0,127.9,0,191.8,0
	c6.8,0,11.4,3.3,12.9,8.8c1.5,5.6-0.7,11.4-6,14c-2.1,1-4.8,1.3-7.2,1.3C514.6,561.2,482.7,561.2,450.7,561.2z"/>
<path d="M450.9,476.2c-32,0-64,0-96,0c-9.6,0-15.7-7.7-12.8-16.2c1.6-4.7,5-7.4,9.9-8c1.8-0.2,3.7-0.2,5.5-0.2
	c62.2,0,124.3,0,186.5,0c1.3,0,2.7,0,4,0c7.6,0.4,12.3,5.2,12.2,12.4c-0.1,6.6-5.2,11.8-12.2,11.9c-15.2,0.1-30.3,0.1-45.5,0.1
	C485.3,476.2,468.1,476.2,450.9,476.2z"/>
<path d="M450.7,366.8c31.6,0,63.3,0,94.9,0c4.7,0,9,0.6,12.1,4.6c5.6,7.3,1.2,18.2-8.1,19.5c-1.3,0.2-2.7,0.1-4,0.1
	c-63.3,0-126.5,0-189.8,0c-9.1,0-15.2-5.7-14.3-13.4c0.8-6.7,5.4-10.7,12.7-10.8c16.3-0.1,32.6,0,48.9,0
	C419.1,366.8,434.9,366.8,450.7,366.8z"/>
</svg>
