<?xml version="1.0" encoding="utf-8"?>
<!-- Generator: Adobe Illustrator 22.0.0, SVG Export Plug-In . SVG Version: 6.00 Build 0)  -->
<svg version="1.1" id="Calque_1" xmlns="http://www.w3.org/2000/svg" xmlns:xlink="http://www.w3.org/1999/xlink" x="0px" y="0px"
	 viewBox="0 0 960 960" style="enable-background:new 0 0 960 960;" xml:space="preserve">
<style type="text/css">
	.st0{fill:#F2423D;}
</style>
<g>
	<path class="st0" d="M282.3,478.9c3.7,17.8,6.4,33.6,11.1,49.1c1.3,4.4,8.7,9.4,13.8,9.8c20.5,1,41.4,0.3,62.2,0.3
		c136.9,0,273.5,0,410.4,0c6.7,0,13.5,0,20.2,0.7c16.5,2,26.6,13.8,26.2,29.6c-0.3,15.8-10.8,27.2-26.9,28.9
		c-4.4,0.3-9.1,0.3-13.5,0.3c-167.5,0-335.1,0-502.9,0c-29.9,0-37-5.7-43.4-35c-34.3-155.8-68.6-311.5-102.3-467.6
		c-3.4-16.1-9.8-23.9-25.9-26.2c-15.5-2-31-5.7-45.8-10.1c-17.8-5-25.9-18.5-22.5-35.7c3-16.1,17.2-25.9,35.7-22.2
		c27.9,5.4,55.8,11.4,83.8,17.8c14.5,3.4,22.5,13.5,25.2,28.3c4.7,23.5,10.1,47.1,15.5,72.3c7.1,0,13.5,0,20.2,0
		c217.7,0,435,0,652.7,0c36.7,0,47.1,13.1,39,49.1c-20.5,92.9-41,185.7-61.6,278.9c-5.4,24.2-14.8,31.3-42.1,31.3
		c-169.2,0-338.4,0-508,0C296.8,478.9,290,478.9,282.3,478.9z"/>
	<path class="st0" d="M395,617.5c43.7,0,79.4,35.7,79.7,80.4c0.7,42.1-36.3,78.7-79.4,79.1c-44.1,0.3-79.7-35.7-79.7-80.4
		C315.3,654.5,352.3,617.5,395,617.5z"/>
	<path class="st0" d="M753.6,698.6c0,42.7-36.7,78.7-80.1,78.4c-44.1-0.3-79.1-36.3-79.1-81.1c0-42.4,37-78.7,80.1-78.4
		C718.3,617.5,753.6,653.9,753.6,698.6z"/>
</g>
</svg>
